<svg width="17" height="16" viewBox="0 0 17 16" fill="none" xmlns="http://www.w3.org/2000/svg">
<path d="M7.60343 12C6.30343 12 5.20066 11.5472 4.2951 10.6417C3.38955 9.73611 2.93677 8.63333 2.93677 7.33333V3.33333C2.93677 2.96667 3.06732 2.65278 3.32843 2.39167C3.58955 2.13056 3.90343 2 4.2701 2H12.6034C13.2479 2 13.7979 2.22778 14.2534 2.68333C14.709 3.13889 14.9368 3.68889 14.9368 4.33333C14.9368 4.97778 14.709 5.52778 14.2534 5.98333C13.7979 6.43889 13.2479 6.66667 12.6034 6.66667H12.2701V7.33333C12.2701 8.63333 11.8173 9.73611 10.9118 10.6417C10.0062 11.5472 8.90343 12 7.60343 12ZM4.2701 5.33333H10.9368V3.33333H4.2701V5.33333ZM7.60343 10.6667C8.52566 10.6667 9.31177 10.3417 9.96177 9.69167C10.6118 9.04167 10.9368 8.25556 10.9368 7.33333V6.66667H4.2701V7.33333C4.2701 8.25556 4.5951 9.04167 5.2451 9.69167C5.8951 10.3417 6.68121 10.6667 7.60343 10.6667ZM12.2701 5.33333H12.6034C12.8812 5.33333 13.1173 5.23611 13.3118 5.04167C13.5062 4.84722 13.6034 4.61111 13.6034 4.33333C13.6034 4.05556 13.5062 3.81944 13.3118 3.625C13.1173 3.43056 12.8812 3.33333 12.6034 3.33333H12.2701V5.33333ZM2.93677 14V12.6667H13.6034V14H2.93677Z" fill="#46442C"/>
</svg>
