<svg width="25" height="24" viewBox="0 0 25 24" fill="none" xmlns="http://www.w3.org/2000/svg">
<path d="M1.5 20V16C1.5 15.4333 1.69583 14.9583 2.0875 14.575C2.47917 14.1917 2.95 14 3.5 14H6.775C7.10833 14 7.425 14.0833 7.725 14.25C8.025 14.4167 8.26666 14.6417 8.45 14.925C8.93333 15.575 9.52916 16.0833 10.2375 16.45C10.9458 16.8167 11.7 17 12.5 17C13.3167 17 14.0792 16.8167 14.7875 16.45C15.4958 16.0833 16.0833 15.575 16.55 14.925C16.7667 14.6417 17.0208 14.4167 17.3125 14.25C17.6042 14.0833 17.9083 14 18.225 14H21.5C22.0667 14 22.5417 14.1917 22.925 14.575C23.3083 14.9583 23.5 15.4333 23.5 16V20H16.5V17.725C15.9167 18.1417 15.2875 18.4583 14.6125 18.675C13.9375 18.8917 13.2333 19 12.5 19C11.7833 19 11.0833 18.8875 10.4 18.6625C9.71666 18.4375 9.08333 18.1167 8.5 17.7V20H1.5ZM12.5 16C11.8667 16 11.2667 15.8542 10.7 15.5625C10.1333 15.2708 9.65833 14.8667 9.275 14.35C8.99166 13.9333 8.6375 13.6042 8.2125 13.3625C7.7875 13.1208 7.325 13 6.825 13C7.19167 12.3833 7.96666 11.8958 9.15 11.5375C10.3333 11.1792 11.45 11 12.5 11C13.55 11 14.6667 11.1792 15.85 11.5375C17.0333 11.8958 17.8083 12.3833 18.175 13C17.6917 13 17.2333 13.1208 16.8 13.3625C16.3667 13.6042 16.0083 13.9333 15.725 14.35C15.3583 14.8833 14.8917 15.2917 14.325 15.575C13.7583 15.8583 13.15 16 12.5 16ZM4.5 13C3.66667 13 2.95833 12.7083 2.375 12.125C1.79167 11.5417 1.5 10.8333 1.5 10C1.5 9.15 1.79167 8.4375 2.375 7.8625C2.95833 7.2875 3.66667 7 4.5 7C5.35 7 6.0625 7.2875 6.6375 7.8625C7.2125 8.4375 7.5 9.15 7.5 10C7.5 10.8333 7.2125 11.5417 6.6375 12.125C6.0625 12.7083 5.35 13 4.5 13ZM20.5 13C19.6667 13 18.9583 12.7083 18.375 12.125C17.7917 11.5417 17.5 10.8333 17.5 10C17.5 9.15 17.7917 8.4375 18.375 7.8625C18.9583 7.2875 19.6667 7 20.5 7C21.35 7 22.0625 7.2875 22.6375 7.8625C23.2125 8.4375 23.5 9.15 23.5 10C23.5 10.8333 23.2125 11.5417 22.6375 12.125C22.0625 12.7083 21.35 13 20.5 13ZM12.5 10C11.6667 10 10.9583 9.70833 10.375 9.125C9.79166 8.54167 9.5 7.83333 9.5 7C9.5 6.15 9.79166 5.4375 10.375 4.8625C10.9583 4.2875 11.6667 4 12.5 4C13.35 4 14.0625 4.2875 14.6375 4.8625C15.2125 5.4375 15.5 6.15 15.5 7C15.5 7.83333 15.2125 8.54167 14.6375 9.125C14.0625 9.70833 13.35 10 12.5 10Z" fill="#3988D1"/>
</svg>
