<svg width="25" height="24" viewBox="0 0 25 24" fill="none" xmlns="http://www.w3.org/2000/svg">
<path d="M12.5 16C13.3 16 14.0125 15.7625 14.6375 15.2875C15.2625 14.8125 15.7167 14.2 16 13.45H9C9.28333 14.2 9.7375 14.8125 10.3625 15.2875C10.9875 15.7625 11.7 16 12.5 16ZM10 12C10.4167 12 10.7708 11.8542 11.0625 11.5625C11.3542 11.2708 11.5 10.9167 11.5 10.5C11.5 10.0833 11.3542 9.72917 11.0625 9.4375C10.7708 9.14583 10.4167 9 10 9C9.58333 9 9.22917 9.14583 8.9375 9.4375C8.64583 9.72917 8.5 10.0833 8.5 10.5C8.5 10.9167 8.64583 11.2708 8.9375 11.5625C9.22917 11.8542 9.58333 12 10 12ZM15 12C15.4167 12 15.7708 11.8542 16.0625 11.5625C16.3542 11.2708 16.5 10.9167 16.5 10.5C16.5 10.0833 16.3542 9.72917 16.0625 9.4375C15.7708 9.14583 15.4167 9 15 9C14.5833 9 14.2292 9.14583 13.9375 9.4375C13.6458 9.72917 13.5 10.0833 13.5 10.5C13.5 10.9167 13.6458 11.2708 13.9375 11.5625C14.2292 11.8542 14.5833 12 15 12ZM8.125 6.4L10.925 2.775C11.125 2.50833 11.3625 2.3125 11.6375 2.1875C11.9125 2.0625 12.2 2 12.5 2C12.8 2 13.0875 2.0625 13.3625 2.1875C13.6375 2.3125 13.875 2.50833 14.075 2.775L16.875 6.4L21.125 7.825C21.5583 7.95833 21.9 8.20417 22.15 8.5625C22.4 8.92083 22.525 9.31667 22.525 9.75C22.525 9.95 22.4958 10.15 22.4375 10.35C22.3792 10.55 22.2833 10.7417 22.15 10.925L19.4 14.825L19.5 18.925C19.5167 19.5083 19.325 20 18.925 20.4C18.525 20.8 18.0583 21 17.525 21C17.4917 21 17.3083 20.975 16.975 20.925L12.5 19.675L8.025 20.925C7.94167 20.9583 7.85 20.9792 7.75 20.9875C7.65 20.9958 7.55833 21 7.475 21C6.94167 21 6.475 20.8 6.075 20.4C5.675 20 5.48333 19.5083 5.5 18.925L5.6 14.8L2.875 10.925C2.74167 10.7417 2.64583 10.55 2.5875 10.35C2.52917 10.15 2.5 9.95 2.5 9.75C2.5 9.33333 2.62083 8.94583 2.8625 8.5875C3.10417 8.22917 3.44167 7.975 3.875 7.825L8.125 6.4ZM9.35 8.125L4.5 9.725L7.6 14.2L7.5 18.975L12.5 17.6L17.5 19L17.4 14.2L20.5 9.775L15.65 8.125L12.5 4L9.35 8.125Z" fill="#286EAE"/>
</svg>
