<svg width="25" height="24" viewBox="0 0 25 24" fill="none" xmlns="http://www.w3.org/2000/svg">
<path d="M14.5 9.9V8.2C15.05 7.96667 15.6125 7.79167 16.1875 7.675C16.7625 7.55833 17.3667 7.5 18 7.5C18.4333 7.5 18.8583 7.53333 19.275 7.6C19.6917 7.66667 20.1 7.75 20.5 7.85V9.45C20.1 9.3 19.6958 9.1875 19.2875 9.1125C18.8792 9.0375 18.45 9 18 9C17.3667 9 16.7583 9.07917 16.175 9.2375C15.5917 9.39583 15.0333 9.61667 14.5 9.9ZM14.5 15.4V13.7C15.05 13.4667 15.6125 13.2917 16.1875 13.175C16.7625 13.0583 17.3667 13 18 13C18.4333 13 18.8583 13.0333 19.275 13.1C19.6917 13.1667 20.1 13.25 20.5 13.35V14.95C20.1 14.8 19.6958 14.6875 19.2875 14.6125C18.8792 14.5375 18.45 14.5 18 14.5C17.3667 14.5 16.7583 14.575 16.175 14.725C15.5917 14.875 15.0333 15.1 14.5 15.4ZM14.5 12.65V10.95C15.05 10.7167 15.6125 10.5417 16.1875 10.425C16.7625 10.3083 17.3667 10.25 18 10.25C18.4333 10.25 18.8583 10.2833 19.275 10.35C19.6917 10.4167 20.1 10.5 20.5 10.6V12.2C20.1 12.05 19.6958 11.9375 19.2875 11.8625C18.8792 11.7875 18.45 11.75 18 11.75C17.3667 11.75 16.7583 11.8292 16.175 11.9875C15.5917 12.1458 15.0333 12.3667 14.5 12.65ZM7 16C7.78333 16 8.54583 16.0875 9.2875 16.2625C10.0292 16.4375 10.7667 16.7 11.5 17.05V7.2C10.8167 6.8 10.0917 6.5 9.325 6.3C8.55833 6.1 7.78333 6 7 6C6.4 6 5.80417 6.05833 5.2125 6.175C4.62083 6.29167 4.05 6.46667 3.5 6.7V16.6C4.08333 16.4 4.6625 16.25 5.2375 16.15C5.8125 16.05 6.4 16 7 16ZM13.5 17.05C14.2333 16.7 14.9708 16.4375 15.7125 16.2625C16.4542 16.0875 17.2167 16 18 16C18.6 16 19.1875 16.05 19.7625 16.15C20.3375 16.25 20.9167 16.4 21.5 16.6V6.7C20.95 6.46667 20.3792 6.29167 19.7875 6.175C19.1958 6.05833 18.6 6 18 6C17.2167 6 16.4417 6.1 15.675 6.3C14.9083 6.5 14.1833 6.8 13.5 7.2V17.05ZM12.5 20C11.7 19.3667 10.8333 18.875 9.9 18.525C8.96667 18.175 8 18 7 18C6.3 18 5.6125 18.0917 4.9375 18.275C4.2625 18.4583 3.61667 18.7167 3 19.05C2.65 19.2333 2.3125 19.225 1.9875 19.025C1.6625 18.825 1.5 18.5333 1.5 18.15V6.1C1.5 5.91667 1.54583 5.74167 1.6375 5.575C1.72917 5.40833 1.86667 5.28333 2.05 5.2C2.81667 4.8 3.61667 4.5 4.45 4.3C5.28333 4.1 6.13333 4 7 4C7.96667 4 8.9125 4.125 9.8375 4.375C10.7625 4.625 11.65 5 12.5 5.5C13.35 5 14.2375 4.625 15.1625 4.375C16.0875 4.125 17.0333 4 18 4C18.8667 4 19.7167 4.1 20.55 4.3C21.3833 4.5 22.1833 4.8 22.95 5.2C23.1333 5.28333 23.2708 5.40833 23.3625 5.575C23.4542 5.74167 23.5 5.91667 23.5 6.1V18.15C23.5 18.5333 23.3375 18.825 23.0125 19.025C22.6875 19.225 22.35 19.2333 22 19.05C21.3833 18.7167 20.7375 18.4583 20.0625 18.275C19.3875 18.0917 18.7 18 18 18C17 18 16.0333 18.175 15.1 18.525C14.1667 18.875 13.3 19.3667 12.5 20Z" fill="#286EAE"/>
</svg>
