<svg width="25" height="24" viewBox="0 0 25 24" fill="none" xmlns="http://www.w3.org/2000/svg">
<path d="M9.2 12.925L10.575 13.85L12.5 12.875L14.425 13.85L15.75 12.975L14.75 11H10.15L9.2 12.925ZM5.725 20H19.25L16.65 14.775L14.575 16.15L12.5 15.125L10.425 16.15L8.3 14.75L5.725 20ZM2.5 22L8.35 10.125C8.51667 9.79167 8.7625 9.52083 9.0875 9.3125C9.4125 9.10417 9.76667 9 10.15 9H11.5V2H18.5L17.5 4L18.5 6H13.5V9H14.75C15.1333 9 15.4833 9.1 15.8 9.3C16.1167 9.5 16.3667 9.76667 16.55 10.1L22.5 22H2.5Z" fill="#286EAE"/>
</svg>
